<svg width="74" height="16" viewBox="0 0 74 16" fill="none" xmlns="http://www.w3.org/2000/svg">
<path d="M4.336 12.16C3.45067 12.16 2.39467 12.0747 1.168 11.904V10.608C2.40533 10.8747 3.49333 11.008 4.432 11.008C5.22133 11.008 5.79733 10.9227 6.16 10.752C6.52267 10.5707 6.704 10.24 6.704 9.76V8.416C6.704 7.968 6.576 7.65333 6.32 7.472C6.064 7.29067 5.616 7.2 4.976 7.2H3.76C2.74667 7.2 2.02667 6.99733 1.6 6.592C1.17333 6.18667 0.96 5.55733 0.96 4.704V3.872C0.96 3.30667 1.08267 2.848 1.328 2.496C1.584 2.144 2.00533 1.88267 2.592 1.712C3.18933 1.54133 4.00533 1.456 5.04 1.456C5.73333 1.456 6.624 1.51467 7.712 1.632V2.8C6.496 2.61867 5.568 2.528 4.928 2.528C3.936 2.528 3.28 2.624 2.96 2.816C2.62933 3.01867 2.464 3.35467 2.464 3.824V5.008C2.464 5.37067 2.592 5.63733 2.848 5.808C3.11467 5.968 3.568 6.048 4.208 6.048H5.456C6.17067 6.048 6.72533 6.13333 7.12 6.304C7.52533 6.47467 7.808 6.736 7.968 7.088C8.13867 7.42933 8.224 7.89333 8.224 8.48V9.232C8.224 9.968 8.08533 10.5493 7.808 10.976C7.54133 11.4027 7.12533 11.7067 6.56 11.888C5.99467 12.0693 5.25333 12.16 4.336 12.16ZM13.6054 12.16C12.944 12.16 12.4267 12.0907 12.0534 11.952C11.68 11.8027 11.408 11.5573 11.2374 11.216C11.0774 10.864 10.9974 10.3733 10.9974 9.744V5.2H9.26938V4.256H10.9974V1.856H12.4534V4.256H15.2214V5.2H12.4534V9.824C12.4534 10.208 12.496 10.496 12.5814 10.688C12.6774 10.88 12.8374 11.0187 13.0614 11.104C13.296 11.1787 13.632 11.216 14.0694 11.216C14.208 11.216 14.592 11.1733 15.2214 11.088V12.032C14.6774 12.1173 14.1387 12.16 13.6054 12.16ZM19.1789 12.16C18.4429 12.16 17.8722 12.0907 17.4669 11.952C17.0722 11.8133 16.7842 11.568 16.6029 11.216C16.4322 10.864 16.3469 10.3573 16.3469 9.696C16.3469 9.10933 16.4269 8.656 16.5869 8.336C16.7575 8.00533 17.0402 7.77067 17.4349 7.632C17.8402 7.49333 18.4109 7.424 19.1469 7.424H21.4669V6.192C21.4669 5.904 21.4082 5.68533 21.2909 5.536C21.1842 5.376 20.9975 5.264 20.7309 5.2C20.4749 5.136 20.0962 5.104 19.5949 5.104C18.7949 5.104 17.9095 5.168 16.9389 5.296V4.24C17.9949 4.144 18.9495 4.096 19.8029 4.096C20.6989 4.096 21.3602 4.16533 21.7869 4.304C22.2135 4.432 22.5069 4.66133 22.6669 4.992C22.8269 5.32267 22.9069 5.83467 22.9069 6.528V12H21.5149V11.264C21.3975 11.8613 20.6189 12.16 19.1789 12.16ZM19.4189 11.216C19.9415 11.216 20.3842 11.1787 20.7469 11.104C21.2269 11.008 21.4669 10.784 21.4669 10.432V8.32H19.2429C18.7842 8.32 18.4535 8.35733 18.2509 8.432C18.0482 8.496 17.9149 8.624 17.8509 8.816C17.7869 9.008 17.7549 9.31733 17.7549 9.744C17.7549 10.128 17.7922 10.4267 17.8669 10.64C17.9415 10.8427 18.0749 10.992 18.2669 11.088C18.4589 11.1733 18.7469 11.216 19.1309 11.216H19.4189ZM26.0923 5.2H24.3163V4.256H26.0923V3.008C26.0923 2.12267 26.2843 1.50933 26.6683 1.168C27.0629 0.815999 27.7243 0.639999 28.6523 0.639999C29.2283 0.639999 29.7669 0.666666 30.2683 0.719999V1.648C29.8629 1.59467 29.5003 1.568 29.1803 1.568C28.7216 1.568 28.3749 1.60533 28.1403 1.68C27.9163 1.75467 27.7563 1.888 27.6603 2.08C27.5749 2.26133 27.5323 2.53867 27.5323 2.912V4.256H31.3243V3.008C31.3243 2.12267 31.5163 1.50933 31.9003 1.168C32.2949 0.815999 32.9563 0.639999 33.8843 0.639999C34.4603 0.639999 34.9989 0.666666 35.5003 0.719999V1.648C35.0949 1.59467 34.7323 1.568 34.4123 1.568C33.9536 1.568 33.6069 1.60533 33.3723 1.68C33.1483 1.75467 32.9883 1.888 32.8923 2.08C32.8069 2.26133 32.7643 2.53867 32.7643 2.912V4.256H35.5003V5.2H32.7643V12H31.3243V5.2H27.5323V12H26.0923V5.2ZM43.836 12.16C42.9507 12.16 41.8947 12.0747 40.668 11.904V10.608C41.9053 10.8747 42.9933 11.008 43.932 11.008C44.7213 11.008 45.2973 10.9227 45.66 10.752C46.0227 10.5707 46.204 10.24 46.204 9.76V8.416C46.204 7.968 46.076 7.65333 45.82 7.472C45.564 7.29067 45.116 7.2 44.476 7.2H43.26C42.2467 7.2 41.5267 6.99733 41.1 6.592C40.6733 6.18667 40.46 5.55733 40.46 4.704V3.872C40.46 3.30667 40.5827 2.848 40.828 2.496C41.084 2.144 41.5053 1.88267 42.092 1.712C42.6893 1.54133 43.5053 1.456 44.54 1.456C45.2333 1.456 46.124 1.51467 47.212 1.632V2.8C45.996 2.61867 45.068 2.528 44.428 2.528C43.436 2.528 42.78 2.624 42.46 2.816C42.1293 3.01867 41.964 3.35467 41.964 3.824V5.008C41.964 5.37067 42.092 5.63733 42.348 5.808C42.6147 5.968 43.068 6.048 43.708 6.048H44.956C45.6707 6.048 46.2253 6.13333 46.62 6.304C47.0253 6.47467 47.308 6.736 47.468 7.088C47.6387 7.42933 47.724 7.89333 47.724 8.48V9.232C47.724 9.968 47.5853 10.5493 47.308 10.976C47.0413 11.4027 46.6253 11.7067 46.06 11.888C45.4947 12.0693 44.7533 12.16 43.836 12.16ZM53.1054 12.16C52.444 12.16 51.9267 12.0907 51.5534 11.952C51.18 11.8027 50.908 11.5573 50.7374 11.216C50.5774 10.864 50.4974 10.3733 50.4974 9.744V5.2H48.7694V4.256H50.4974V1.856H51.9534V4.256H54.7214V5.2H51.9534V9.824C51.9534 10.208 51.996 10.496 52.0814 10.688C52.1774 10.88 52.3374 11.0187 52.5614 11.104C52.796 11.1787 53.132 11.216 53.5694 11.216C53.708 11.216 54.092 11.1733 54.7214 11.088V12.032C54.1774 12.1173 53.6387 12.16 53.1054 12.16ZM58.1349 12.112L55.1429 4.256H56.7109L58.8709 10.576H58.9029L60.8549 4.256H62.3109L58.4229 15.328H56.9189L58.1349 12.112ZM63.6543 0.799999H65.0943V12H63.6543V0.799999ZM70.8558 12.16C68.4878 12.16 67.3038 11.3707 67.3038 9.792V6.736C67.3038 5.79733 67.5704 5.12533 68.1038 4.72C68.6478 4.304 69.5224 4.096 70.7278 4.096C71.8691 4.096 72.6904 4.29333 73.1918 4.688C73.7038 5.08267 73.9598 5.76533 73.9598 6.736V8.448H68.7598V9.616C68.7598 10.1493 68.9464 10.5333 69.3198 10.768C69.6931 11.0027 70.2691 11.12 71.0477 11.12C71.7838 11.12 72.6531 10.992 73.6558 10.736V11.84C72.6744 12.0533 71.7411 12.16 70.8558 12.16ZM72.5198 7.504V6.288C72.5198 5.81867 72.3758 5.49867 72.0878 5.328C71.8104 5.14667 71.3304 5.056 70.6478 5.056C69.9864 5.056 69.5064 5.14667 69.2078 5.328C68.9091 5.49867 68.7598 5.81867 68.7598 6.288V7.504H72.5198Z" fill="white"/>
</svg>
